{
	"patcher" : 	{
		"fileversion" : 1,
		"appversion" : 		{
			"major" : 8,
			"minor" : 5,
			"revision" : 1,
			"architecture" : "x64",
			"modernui" : 1
		}
,
		"classnamespace" : "box",
		"rect" : [ 507.0, 70.0, 407.0, 232.0 ],
		"bglocked" : 1,
		"openinpresentation" : 1,
		"default_fontsize" : 12.0,
		"default_fontface" : 0,
		"default_fontname" : "Arial",
		"gridonopen" : 1,
		"gridsize" : [ 15.0, 15.0 ],
		"gridsnaponopen" : 1,
		"objectsnaponopen" : 1,
		"statusbarvisible" : 2,
		"toolbarvisible" : 0,
		"lefttoolbarpinned" : 0,
		"toptoolbarpinned" : 0,
		"righttoolbarpinned" : 0,
		"bottomtoolbarpinned" : 0,
		"toolbars_unpinned_last_save" : 0,
		"tallnewobj" : 0,
		"boxanimatetime" : 200,
		"enablehscroll" : 0,
		"enablevscroll" : 0,
		"devicewidth" : 0.0,
		"description" : "",
		"digest" : "",
		"tags" : "",
		"style" : "",
		"subpatcher_template" : "",
		"assistshowspatchername" : 0,
		"boxes" : [ 			{
				"box" : 				{
					"bgcolor" : [ 0.0, 0.0, 0.0, 1.0 ],
					"bgcolor2" : [ 0.0, 0.0, 0.0, 1.0 ],
					"bgfillcolor_angle" : 270.0,
					"bgfillcolor_autogradient" : 0.0,
					"bgfillcolor_color" : [ 0.2, 0.2, 0.2, 1.0 ],
					"bgfillcolor_color1" : [ 0.0, 0.0, 0.0, 1.0 ],
					"bgfillcolor_color2" : [ 0.0, 0.0, 0.0, 1.0 ],
					"bgfillcolor_proportion" : 0.5,
					"bgfillcolor_type" : "gradient",
					"fontname" : "Ableton Sans Bold",
					"fontsize" : 11.0,
					"gradient" : 1,
					"id" : "obj-2",
					"maxclass" : "message",
					"numinlets" : 2,
					"numoutlets" : 1,
					"outlettype" : [ "" ],
					"patching_rect" : [ 21.5, 192.0, 145.0, 22.0 ],
					"presentation" : 1,
					"presentation_rect" : [ 19.5, 189.0, 121.0, 22.0 ],
					"text" : "Twinkler",
					"textjustification" : 1
				}

			}
, 			{
				"box" : 				{
					"bgcolor" : [ 0.0, 0.0, 0.0, 1.0 ],
					"bgcolor2" : [ 0.0, 0.0, 0.0, 1.0 ],
					"bgfillcolor_angle" : 270.0,
					"bgfillcolor_autogradient" : 0.0,
					"bgfillcolor_color" : [ 0.2, 0.2, 0.2, 1.0 ],
					"bgfillcolor_color1" : [ 0.0, 0.0, 0.0, 1.0 ],
					"bgfillcolor_color2" : [ 0.0, 0.0, 0.0, 1.0 ],
					"bgfillcolor_proportion" : 0.5,
					"bgfillcolor_type" : "gradient",
					"fontname" : "Ableton Sans Bold",
					"fontsize" : 11.0,
					"gradient" : 1,
					"id" : "obj-1",
					"maxclass" : "message",
					"numinlets" : 2,
					"numoutlets" : 1,
					"outlettype" : [ "" ],
					"patching_rect" : [ 21.5, 165.0, 145.0, 22.0 ],
					"presentation" : 1,
					"presentation_rect" : [ 19.5, 163.0, 121.0, 22.0 ],
					"text" : "TripleShot",
					"textjustification" : 1
				}

			}
, 			{
				"box" : 				{
					"fontname" : "Arial",
					"fontsize" : 12.0,
					"id" : "obj-136",
					"maxclass" : "newobj",
					"numinlets" : 1,
					"numoutlets" : 1,
					"outlettype" : [ "" ],
					"patching_rect" : [ 69.5, 250.0, 104.0, 22.0 ],
					"text" : "sprintf %s.maxpat"
				}

			}
, 			{
				"box" : 				{
					"fontname" : "Arial",
					"fontsize" : 12.0,
					"id" : "obj-198",
					"maxclass" : "newobj",
					"numinlets" : 1,
					"numoutlets" : 1,
					"outlettype" : [ "" ],
					"patching_rect" : [ 69.5, 346.279069767441854, 56.0, 22.0 ],
					"text" : "pcontrol"
				}

			}
, 			{
				"box" : 				{
					"fontname" : "Arial",
					"fontsize" : 12.0,
					"id" : "obj-199",
					"maxclass" : "message",
					"numinlets" : 2,
					"numoutlets" : 1,
					"outlettype" : [ "" ],
					"patching_rect" : [ 69.5, 314.279069767441854, 48.0, 22.0 ],
					"text" : "load $1"
				}

			}
, 			{
				"box" : 				{
					"fontname" : "Arial",
					"fontsize" : 12.0,
					"id" : "obj-200",
					"maxclass" : "newobj",
					"numinlets" : 1,
					"numoutlets" : 1,
					"outlettype" : [ "" ],
					"patching_rect" : [ 69.5, 282.279069767441854, 101.0, 22.0 ],
					"text" : "prepend symbol"
				}

			}
, 			{
				"box" : 				{
					"fontname" : "Ableton Sans Bold",
					"fontsize" : 14.0,
					"id" : "obj-13",
					"linecount" : 7,
					"maxclass" : "comment",
					"numinlets" : 1,
					"numoutlets" : 0,
					"patching_rect" : [ 189.5, 59.0, 298.0, 124.0 ],
					"presentation" : 1,
					"presentation_linecount" : 8,
					"presentation_rect" : [ 164.5, 59.0, 234.0, 141.0 ],
					"text" : "These examples may give you ideas for using Auzzie modules.\n\nOpen several and play them simultaneously.\n\nTry the presets that are already programmed.",
					"textcolor" : [ 0.996078431372549, 0.996078431372549, 0.996078431372549, 1.0 ]
				}

			}
, 			{
				"box" : 				{
					"fontname" : "Ableton Sans Bold",
					"fontsize" : 20.0,
					"id" : "obj-26",
					"maxclass" : "comment",
					"numinlets" : 1,
					"numoutlets" : 0,
					"patching_rect" : [ 19.5, 14.0, 186.0, 30.0 ],
					"presentation" : 1,
					"presentation_rect" : [ 19.5, 14.0, 182.0, 30.0 ],
					"text" : "Auzzie Examples",
					"textcolor" : [ 0.996078, 0.996078, 0.996078, 1.0 ]
				}

			}
, 			{
				"box" : 				{
					"bgcolor" : [ 0.0, 0.0, 0.0, 1.0 ],
					"bgcolor2" : [ 0.0, 0.0, 0.0, 1.0 ],
					"bgfillcolor_angle" : 270.0,
					"bgfillcolor_autogradient" : 0.0,
					"bgfillcolor_color" : [ 0.2, 0.2, 0.2, 1.0 ],
					"bgfillcolor_color1" : [ 0.0, 0.0, 0.0, 1.0 ],
					"bgfillcolor_color2" : [ 0.0, 0.0, 0.0, 1.0 ],
					"bgfillcolor_proportion" : 0.5,
					"bgfillcolor_type" : "gradient",
					"fontname" : "Ableton Sans Bold",
					"fontsize" : 11.0,
					"gradient" : 1,
					"id" : "obj-15",
					"maxclass" : "message",
					"numinlets" : 2,
					"numoutlets" : 1,
					"outlettype" : [ "" ],
					"patching_rect" : [ 21.5, 138.0, 145.0, 22.0 ],
					"presentation" : 1,
					"presentation_rect" : [ 19.5, 137.0, 121.0, 22.0 ],
					"text" : "SpectralDelayer",
					"textjustification" : 1
				}

			}
, 			{
				"box" : 				{
					"bgcolor" : [ 0.0, 0.0, 0.0, 1.0 ],
					"bgcolor2" : [ 0.0, 0.0, 0.0, 1.0 ],
					"bgfillcolor_angle" : 270.0,
					"bgfillcolor_autogradient" : 0.0,
					"bgfillcolor_color" : [ 0.2, 0.2, 0.2, 1.0 ],
					"bgfillcolor_color1" : [ 0.0, 0.0, 0.0, 1.0 ],
					"bgfillcolor_color2" : [ 0.0, 0.0, 0.0, 1.0 ],
					"bgfillcolor_proportion" : 0.5,
					"bgfillcolor_type" : "gradient",
					"fontname" : "Ableton Sans Bold",
					"fontsize" : 11.0,
					"gradient" : 1,
					"id" : "obj-16",
					"maxclass" : "message",
					"numinlets" : 2,
					"numoutlets" : 1,
					"outlettype" : [ "" ],
					"patching_rect" : [ 21.5, 111.0, 145.0, 22.0 ],
					"presentation" : 1,
					"presentation_rect" : [ 19.5, 111.0, 121.0, 22.0 ],
					"text" : "MurkyDepths",
					"textjustification" : 1
				}

			}
, 			{
				"box" : 				{
					"bgcolor" : [ 0.0, 0.0, 0.0, 1.0 ],
					"bgcolor2" : [ 0.0, 0.0, 0.0, 1.0 ],
					"bgfillcolor_angle" : 270.0,
					"bgfillcolor_autogradient" : 0.0,
					"bgfillcolor_color" : [ 0.2, 0.2, 0.2, 1.0 ],
					"bgfillcolor_color1" : [ 0.0, 0.0, 0.0, 1.0 ],
					"bgfillcolor_color2" : [ 0.0, 0.0, 0.0, 1.0 ],
					"bgfillcolor_proportion" : 0.5,
					"bgfillcolor_type" : "gradient",
					"fontname" : "Ableton Sans Bold",
					"fontsize" : 11.0,
					"gradient" : 1,
					"id" : "obj-17",
					"maxclass" : "message",
					"numinlets" : 2,
					"numoutlets" : 1,
					"outlettype" : [ "" ],
					"patching_rect" : [ 21.5, 85.0, 145.0, 22.0 ],
					"presentation" : 1,
					"presentation_rect" : [ 19.5, 85.0, 121.0, 22.0 ],
					"text" : "LunarWind",
					"textjustification" : 1
				}

			}
, 			{
				"box" : 				{
					"bgcolor" : [ 0.0, 0.0, 0.0, 1.0 ],
					"bgcolor2" : [ 0.0, 0.0, 0.0, 1.0 ],
					"bgfillcolor_angle" : 270.0,
					"bgfillcolor_autogradient" : 0.0,
					"bgfillcolor_color" : [ 0.2, 0.2, 0.2, 1.0 ],
					"bgfillcolor_color1" : [ 0.0, 0.0, 0.0, 1.0 ],
					"bgfillcolor_color2" : [ 0.0, 0.0, 0.0, 1.0 ],
					"bgfillcolor_proportion" : 0.5,
					"bgfillcolor_type" : "gradient",
					"fontname" : "Ableton Sans Bold",
					"fontsize" : 11.0,
					"gradient" : 1,
					"id" : "obj-18",
					"maxclass" : "message",
					"numinlets" : 2,
					"numoutlets" : 1,
					"outlettype" : [ "" ],
					"patching_rect" : [ 21.5, 59.0, 145.0, 22.0 ],
					"presentation" : 1,
					"presentation_rect" : [ 19.5, 59.0, 121.0, 22.0 ],
					"text" : "DoubleGran",
					"textjustification" : 1
				}

			}
 ],
		"lines" : [ 			{
				"patchline" : 				{
					"destination" : [ "obj-136", 0 ],
					"source" : [ "obj-1", 0 ]
				}

			}
, 			{
				"patchline" : 				{
					"destination" : [ "obj-200", 0 ],
					"source" : [ "obj-136", 0 ]
				}

			}
, 			{
				"patchline" : 				{
					"destination" : [ "obj-136", 0 ],
					"source" : [ "obj-15", 0 ]
				}

			}
, 			{
				"patchline" : 				{
					"destination" : [ "obj-136", 0 ],
					"source" : [ "obj-16", 0 ]
				}

			}
, 			{
				"patchline" : 				{
					"destination" : [ "obj-136", 0 ],
					"source" : [ "obj-17", 0 ]
				}

			}
, 			{
				"patchline" : 				{
					"destination" : [ "obj-136", 0 ],
					"source" : [ "obj-18", 0 ]
				}

			}
, 			{
				"patchline" : 				{
					"destination" : [ "obj-198", 0 ],
					"source" : [ "obj-199", 0 ]
				}

			}
, 			{
				"patchline" : 				{
					"destination" : [ "obj-136", 0 ],
					"source" : [ "obj-2", 0 ]
				}

			}
, 			{
				"patchline" : 				{
					"destination" : [ "obj-199", 0 ],
					"source" : [ "obj-200", 0 ]
				}

			}
 ],
		"dependency_cache" : [  ],
		"autosave" : 0,
		"bgcolor" : [ 0.380392156862745, 0.32156862745098, 0.443137254901961, 1.0 ],
		"editing_bgcolor" : [ 0.381406051384499, 0.323405136079862, 0.44172700330132, 1.0 ]
	}

}
