{
	"patcher" : 	{
		"fileversion" : 1,
		"appversion" : 		{
			"major" : 8,
			"minor" : 6,
			"revision" : 5,
			"architecture" : "x64",
			"modernui" : 1
		}
,
		"classnamespace" : "box",
		"rect" : [ 100.0, 100.0, 410.0, 794.0 ],
		"bglocked" : 0,
		"openinpresentation" : 0,
		"default_fontsize" : 12.0,
		"default_fontface" : 0,
		"default_fontname" : "Arial",
		"gridonopen" : 1,
		"gridsize" : [ 15.0, 15.0 ],
		"gridsnaponopen" : 1,
		"objectsnaponopen" : 1,
		"statusbarvisible" : 2,
		"toolbarvisible" : 1,
		"lefttoolbarpinned" : 0,
		"toptoolbarpinned" : 0,
		"righttoolbarpinned" : 0,
		"bottomtoolbarpinned" : 0,
		"toolbars_unpinned_last_save" : 0,
		"tallnewobj" : 0,
		"boxanimatetime" : 200,
		"enablehscroll" : 1,
		"enablevscroll" : 1,
		"devicewidth" : 0.0,
		"description" : "",
		"digest" : "",
		"tags" : "",
		"style" : "",
		"subpatcher_template" : "",
		"helpsidebarclosed" : 1,
		"assistshowspatchername" : 0,
		"boxes" : [ 			{
				"box" : 				{
					"hidden" : 1,
					"id" : "obj-3",
					"maxclass" : "newobj",
					"numinlets" : 1,
					"numoutlets" : 1,
					"outlettype" : [ "" ],
					"patching_rect" : [ 243.0, 444.0, 73.0, 22.0 ],
					"text" : "loadmess 1."
				}

			}
, 			{
				"box" : 				{
					"hidden" : 1,
					"id" : "obj-2",
					"maxclass" : "newobj",
					"numinlets" : 1,
					"numoutlets" : 1,
					"outlettype" : [ "" ],
					"patching_rect" : [ 239.0, 334.0, 153.0, 22.0 ],
					"text" : "loadmess 1000. 0. 1. 2000."
				}

			}
, 			{
				"box" : 				{
					"annotation" : "## A polyphonic noise synthesizer ##",
					"bgmode" : 1,
					"border" : 0,
					"clickthrough" : 0,
					"enablehscroll" : 0,
					"enablevscroll" : 0,
					"id" : "obj-26",
					"lockeddragscroll" : 0,
					"lockedsize" : 0,
					"maxclass" : "bpatcher",
					"name" : "az.noisr~.maxpat",
					"numinlets" : 6,
					"numoutlets" : 1,
					"offset" : [ 0.0, 0.0 ],
					"outlettype" : [ "multichannelsignal" ],
					"patching_rect" : [ 18.0, 334.0, 209.0, 142.0 ],
					"prototypename" : "pixl",
					"varname" : "noisr",
					"viewvisibility" : 1
				}

			}
, 			{
				"box" : 				{
					"bubble" : 1,
					"bubblepoint" : 0.0,
					"id" : "obj-16",
					"linecount" : 2,
					"maxclass" : "comment",
					"numinlets" : 1,
					"numoutlets" : 0,
					"patching_rect" : [ 59.0, 239.5, 277.0, 37.0 ],
					"text" : "This packs the MIDI note number and velocity into a list, which is what NOISR wants to see."
				}

			}
, 			{
				"box" : 				{
					"bubble" : 1,
					"bubbleside" : 2,
					"id" : "obj-11",
					"maxclass" : "comment",
					"numinlets" : 1,
					"numoutlets" : 0,
					"patching_rect" : [ 51.0, 116.5, 208.0, 39.0 ],
					"text" : "Build up chords, then release notes.",
					"textjustification" : 1
				}

			}
, 			{
				"box" : 				{
					"id" : "obj-10",
					"maxclass" : "newobj",
					"numinlets" : 2,
					"numoutlets" : 1,
					"outlettype" : [ "" ],
					"patching_rect" : [ 18.0, 233.5, 34.0, 22.0 ],
					"text" : "pack"
				}

			}
, 			{
				"box" : 				{
					"id" : "obj-7",
					"maxclass" : "kslider",
					"mode" : 1,
					"numinlets" : 2,
					"numoutlets" : 2,
					"offset" : 48,
					"outlettype" : [ "int", "int" ],
					"parameter_enable" : 0,
					"patching_rect" : [ 18.0, 158.5, 336.0, 53.0 ]
				}

			}
, 			{
				"box" : 				{
					"bubblepoint" : 1.0,
					"bubbleside" : 0,
					"bubbleusescolors" : 1,
					"fontname" : "Arial",
					"fontsize" : 36.0,
					"id" : "obj-15",
					"maxclass" : "comment",
					"numinlets" : 1,
					"numoutlets" : 0,
					"patching_rect" : [ 17.0, 16.0, 346.0, 47.0 ],
					"saved_attribute_attributes" : 					{
						"textcolor" : 						{
							"expression" : "themecolor.live_control_fg"
						}

					}
,
					"text" : "NOISR / az.noisr~",
					"textcolor" : [ 0.9, 0.9, 0.9, 1.0 ]
				}

			}
, 			{
				"box" : 				{
					"bubblepoint" : 1.0,
					"bubbleside" : 0,
					"bubbleusescolors" : 1,
					"fontname" : "Arial",
					"fontsize" : 16.0,
					"id" : "obj-9",
					"linecount" : 2,
					"maxclass" : "comment",
					"numinlets" : 1,
					"numoutlets" : 0,
					"patching_rect" : [ 17.0, 65.0, 346.0, 42.0 ],
					"saved_attribute_attributes" : 					{
						"textcolor" : 						{
							"expression" : "themecolor.live_control_fg"
						}

					}
,
					"text" : "Synthesize filtered noise notes. Use the built-in bandpass filter to impose pitch on the noise.",
					"textcolor" : [ 0.9, 0.9, 0.9, 1.0 ]
				}

			}
, 			{
				"box" : 				{
					"bubblepoint" : 1.0,
					"bubbleside" : 0,
					"bubbleusescolors" : 1,
					"fontname" : "Arial Bold",
					"id" : "obj-4",
					"linecount" : 11,
					"maxclass" : "comment",
					"numinlets" : 1,
					"numoutlets" : 0,
					"patching_rect" : [ 98.0, 496.0, 294.0, 154.0 ],
					"saved_attribute_attributes" : 					{
						"textcolor" : 						{
							"expression" : "themecolor.live_control_fg"
						}

					}
,
					"text" : "color - choose white or pink noise\n\nfilter - turn it on or off\n\nQ - filter resonance; higher gives stronger pitch\n\nA, D, S, R - envelope for each note\n\npan - location of sound within the stereo field\n\nR button - reset by stopping sounding notes",
					"textcolor" : [ 0.9, 0.9, 0.9, 1.0 ]
				}

			}
, 			{
				"box" : 				{
					"bubble" : 1,
					"bubblepoint" : 0.0,
					"bubbleside" : 2,
					"id" : "obj-8",
					"maxclass" : "comment",
					"numinlets" : 1,
					"numoutlets" : 0,
					"patching_rect" : [ 62.5, 291.0, 310.0, 39.0 ],
					"text" : "Mouse over the white dots to see what the inlets control."
				}

			}
, 			{
				"box" : 				{
					"bubble" : 1,
					"id" : "obj-20",
					"linecount" : 2,
					"maxclass" : "comment",
					"numinlets" : 1,
					"numoutlets" : 0,
					"patching_rect" : [ 98.0, 724.0, 132.0, 37.0 ],
					"text" : "Turn on audio, and control volume."
				}

			}
, 			{
				"box" : 				{
					"bubble" : 1,
					"bubblepoint" : 1.0,
					"id" : "obj-14",
					"linecount" : 3,
					"maxclass" : "comment",
					"numinlets" : 1,
					"numoutlets" : 0,
					"patching_rect" : [ 229.0, 374.5, 140.0, 51.0 ],
					"text" : "Adjust parameters affecting all currently sounding notes."
				}

			}
, 			{
				"box" : 				{
					"annotation" : "## Output fader ##",
					"bgmode" : 1,
					"border" : 0,
					"clickthrough" : 0,
					"enablehscroll" : 0,
					"enablevscroll" : 0,
					"id" : "obj-24",
					"lockeddragscroll" : 0,
					"lockedsize" : 0,
					"maxclass" : "bpatcher",
					"name" : "az.out~.maxpat",
					"numinlets" : 2,
					"numoutlets" : 0,
					"offset" : [ 0.0, 0.0 ],
					"patching_rect" : [ 18.0, 498.0, 71.0, 277.0 ],
					"prototypename" : "pixl",
					"varname" : "out",
					"viewvisibility" : 1
				}

			}
, 			{
				"box" : 				{
					"background" : 1,
					"bgcolor" : [ 1.0, 0.639256198347107, 0.1, 1.0 ],
					"bgoncolor" : [ 1.0, 1.0, 1.0, 0.0 ],
					"fontface" : 1,
					"fontsize" : 16.0,
					"hint" : "",
					"id" : "obj-13",
					"ignoreclick" : 1,
					"legacytextcolor" : 1,
					"maxclass" : "textbutton",
					"numinlets" : 1,
					"numoutlets" : 3,
					"outlettype" : [ "", "", "int" ],
					"parameter_enable" : 0,
					"patching_rect" : [ 239.0, 732.5, 20.0, 20.0 ],
					"rounded" : 60.0,
					"text" : "1",
					"textcolor" : [ 0.0, 0.0, 0.0, 1.0 ],
					"textoncolor" : [ 1.0, 1.0, 1.0, 1.0 ],
					"textovercolor" : [ 0.0, 0.0, 0.0, 1.0 ],
					"usebgoncolor" : 1,
					"usetextovercolor" : 1
				}

			}
, 			{
				"box" : 				{
					"background" : 1,
					"bgcolor" : [ 1.0, 0.639256198347107, 0.1, 1.0 ],
					"bgoncolor" : [ 1.0, 1.0, 1.0, 0.0 ],
					"fontface" : 1,
					"fontsize" : 16.0,
					"hint" : "",
					"id" : "obj-12",
					"ignoreclick" : 1,
					"legacytextcolor" : 1,
					"maxclass" : "textbutton",
					"numinlets" : 1,
					"numoutlets" : 3,
					"outlettype" : [ "", "", "int" ],
					"parameter_enable" : 0,
					"patching_rect" : [ 266.0, 118.5, 20.0, 20.0 ],
					"rounded" : 60.0,
					"text" : "2",
					"textcolor" : [ 0.0, 0.0, 0.0, 1.0 ],
					"textoncolor" : [ 1.0, 1.0, 1.0, 1.0 ],
					"textovercolor" : [ 0.0, 0.0, 0.0, 1.0 ],
					"usebgoncolor" : 1,
					"usetextovercolor" : 1
				}

			}
, 			{
				"box" : 				{
					"background" : 1,
					"bgcolor" : [ 1.0, 0.639256198347107, 0.1, 1.0 ],
					"bgoncolor" : [ 1.0, 1.0, 1.0, 0.0 ],
					"fontface" : 1,
					"fontsize" : 16.0,
					"hint" : "",
					"id" : "obj-5",
					"ignoreclick" : 1,
					"legacytextcolor" : 1,
					"maxclass" : "textbutton",
					"numinlets" : 1,
					"numoutlets" : 3,
					"outlettype" : [ "", "", "int" ],
					"parameter_enable" : 0,
					"patching_rect" : [ 376.0, 390.0, 20.0, 20.0 ],
					"rounded" : 60.0,
					"text" : "3",
					"textcolor" : [ 0.0, 0.0, 0.0, 1.0 ],
					"textoncolor" : [ 1.0, 1.0, 1.0, 1.0 ],
					"textovercolor" : [ 0.0, 0.0, 0.0, 1.0 ],
					"usebgoncolor" : 1,
					"usetextovercolor" : 1
				}

			}
 ],
		"lines" : [ 			{
				"patchline" : 				{
					"color" : [ 0.988235294117647, 0.431372549019608, 0.031372549019608, 1.0 ],
					"destination" : [ "obj-26", 0 ],
					"source" : [ "obj-10", 0 ]
				}

			}
, 			{
				"patchline" : 				{
					"destination" : [ "obj-26", 2 ],
					"hidden" : 1,
					"source" : [ "obj-2", 0 ]
				}

			}
, 			{
				"patchline" : 				{
					"destination" : [ "obj-24", 0 ],
					"source" : [ "obj-26", 0 ]
				}

			}
, 			{
				"patchline" : 				{
					"destination" : [ "obj-26", 4 ],
					"hidden" : 1,
					"source" : [ "obj-3", 0 ]
				}

			}
, 			{
				"patchline" : 				{
					"color" : [ 0.988235294117647, 0.431372549019608, 0.031372549019608, 1.0 ],
					"destination" : [ "obj-10", 1 ],
					"source" : [ "obj-7", 1 ]
				}

			}
, 			{
				"patchline" : 				{
					"color" : [ 0.989417433738708, 0.429457008838654, 0.031975548714399, 1.0 ],
					"destination" : [ "obj-10", 0 ],
					"source" : [ "obj-7", 0 ]
				}

			}
 ],
		"parameters" : 		{
			"obj-24::obj-102" : [ "pictctrl[1]", "pictctrl[1]", 0 ],
			"obj-24::obj-16" : [ "output", "output", 0 ],
			"obj-24::obj-86" : [ "textbutton[1]", "textbutton", 0 ],
			"obj-26::obj-105" : [ "pictctrl[9]", "pictctrl[3]", 0 ],
			"obj-26::obj-12" : [ "resetpan", "resetpan", 0 ],
			"obj-26::obj-13" : [ "pan", "pan", 0 ],
			"obj-26::obj-14" : [ "noise-color", "noise-color", 0 ],
			"obj-26::obj-16" : [ "release[1]", "R", 0 ],
			"obj-26::obj-18" : [ "filter-xable", "filter-xable", 0 ],
			"obj-26::obj-21" : [ "Q", "Q", 0 ],
			"obj-26::obj-265" : [ "pictctrl[40]", "pictctrl[3]", 0 ],
			"obj-26::obj-276" : [ "FreqMode[4]", "FreqMode", 0 ],
			"obj-26::obj-278" : [ "module-xable", "module-xable", 0 ],
			"obj-26::obj-5" : [ "attack[1]", "A", 0 ],
			"obj-26::obj-55" : [ "pictctrl[19]", "pictctrl[3]", 0 ],
			"obj-26::obj-6" : [ "decay", "D", 0 ],
			"obj-26::obj-60" : [ "pictctrl[14]", "pictctrl[3]", 0 ],
			"obj-26::obj-63" : [ "pictctrl[18]", "pictctrl[3]", 0 ],
			"obj-26::obj-79" : [ "pictctrl[10]", "pictctrl[3]", 0 ],
			"obj-26::obj-8" : [ "sustain", "S", 0 ],
			"parameterbanks" : 			{
				"0" : 				{
					"index" : 0,
					"name" : "",
					"parameters" : [ "-", "-", "-", "-", "-", "-", "-", "-" ]
				}

			}
,
			"parameter_overrides" : 			{
				"obj-24::obj-102" : 				{
					"parameter_longname" : "pictctrl[1]"
				}
,
				"obj-26::obj-16" : 				{
					"parameter_longname" : "release[1]"
				}
,
				"obj-26::obj-5" : 				{
					"parameter_longname" : "attack[1]"
				}
,
				"obj-26::obj-55" : 				{
					"parameter_longname" : "pictctrl[19]"
				}
,
				"obj-26::obj-60" : 				{
					"parameter_longname" : "pictctrl[14]"
				}
,
				"obj-26::obj-63" : 				{
					"parameter_longname" : "pictctrl[18]"
				}
,
				"obj-26::obj-79" : 				{
					"parameter_longname" : "pictctrl[10]"
				}

			}
,
			"inherited_shortname" : 1
		}
,
		"autosave" : 0,
		"bgcolor" : [ 0.065, 0.095, 0.115, 1.0 ],
		"editing_bgcolor" : [ 0.065, 0.095, 0.115, 1.0 ],
		"saved_attribute_attributes" : 		{
			"editing_bgcolor" : 			{
				"expression" : "themecolor.theme_editing_bgcolor"
			}
,
			"locked_bgcolor" : 			{
				"expression" : "themecolor.theme_locked_bgcolor"
			}

		}

	}

}
