{
	"patcher" : 	{
		"fileversion" : 1,
		"appversion" : 		{
			"major" : 8,
			"minor" : 6,
			"revision" : 5,
			"architecture" : "x64",
			"modernui" : 1
		}
,
		"classnamespace" : "box",
		"rect" : [ 100.0, 87.0, 747.0, 803.0 ],
		"bglocked" : 0,
		"openinpresentation" : 0,
		"default_fontsize" : 12.0,
		"default_fontface" : 0,
		"default_fontname" : "Arial",
		"gridonopen" : 1,
		"gridsize" : [ 15.0, 15.0 ],
		"gridsnaponopen" : 1,
		"objectsnaponopen" : 1,
		"statusbarvisible" : 2,
		"toolbarvisible" : 1,
		"lefttoolbarpinned" : 0,
		"toptoolbarpinned" : 0,
		"righttoolbarpinned" : 0,
		"bottomtoolbarpinned" : 0,
		"toolbars_unpinned_last_save" : 0,
		"tallnewobj" : 0,
		"boxanimatetime" : 200,
		"enablehscroll" : 1,
		"enablevscroll" : 1,
		"devicewidth" : 0.0,
		"description" : "",
		"digest" : "",
		"tags" : "",
		"style" : "",
		"subpatcher_template" : "",
		"helpsidebarclosed" : 1,
		"assistshowspatchername" : 0,
		"boxes" : [ 			{
				"box" : 				{
					"id" : "obj-6",
					"maxclass" : "meter~",
					"numinlets" : 1,
					"numoutlets" : 1,
					"outlettype" : [ "float" ],
					"patching_rect" : [ 382.0, 375.5, 81.0, 26.0 ]
				}

			}
, 			{
				"box" : 				{
					"id" : "obj-2",
					"maxclass" : "meter~",
					"numinlets" : 1,
					"numoutlets" : 1,
					"outlettype" : [ "float" ],
					"patching_rect" : [ 17.0, 375.5, 81.0, 26.0 ]
				}

			}
, 			{
				"box" : 				{
					"bubble" : 1,
					"id" : "obj-12",
					"linecount" : 2,
					"maxclass" : "comment",
					"numinlets" : 1,
					"numoutlets" : 0,
					"patching_rect" : [ 46.0, 114.5, 127.0, 37.0 ],
					"text" : "Check this box to start synth pattern."
				}

			}
, 			{
				"box" : 				{
					"id" : "obj-11",
					"maxclass" : "newobj",
					"numinlets" : 1,
					"numoutlets" : 2,
					"outlettype" : [ "", "" ],
					"patcher" : 					{
						"fileversion" : 1,
						"appversion" : 						{
							"major" : 8,
							"minor" : 6,
							"revision" : 5,
							"architecture" : "x64",
							"modernui" : 1
						}
,
						"classnamespace" : "box",
						"rect" : [ 0.0, 0.0, 640.0, 480.0 ],
						"bglocked" : 0,
						"openinpresentation" : 0,
						"default_fontsize" : 12.0,
						"default_fontface" : 0,
						"default_fontname" : "Arial",
						"gridonopen" : 1,
						"gridsize" : [ 15.0, 15.0 ],
						"gridsnaponopen" : 1,
						"objectsnaponopen" : 1,
						"statusbarvisible" : 2,
						"toolbarvisible" : 1,
						"lefttoolbarpinned" : 0,
						"toptoolbarpinned" : 0,
						"righttoolbarpinned" : 0,
						"bottomtoolbarpinned" : 0,
						"toolbars_unpinned_last_save" : 0,
						"tallnewobj" : 0,
						"boxanimatetime" : 200,
						"enablehscroll" : 1,
						"enablevscroll" : 1,
						"devicewidth" : 0.0,
						"description" : "",
						"digest" : "",
						"tags" : "",
						"style" : "",
						"subpatcher_template" : "",
						"assistshowspatchername" : 0,
						"boxes" : [ 							{
								"box" : 								{
									"id" : "obj-36",
									"maxclass" : "newobj",
									"numinlets" : 2,
									"numoutlets" : 1,
									"outlettype" : [ "" ],
									"patching_rect" : [ 183.0, 211.0, 34.0, 22.0 ],
									"text" : "pack"
								}

							}
, 							{
								"box" : 								{
									"id" : "obj-35",
									"maxclass" : "newobj",
									"numinlets" : 2,
									"numoutlets" : 1,
									"outlettype" : [ "" ],
									"patching_rect" : [ 50.0, 211.0, 34.0, 22.0 ],
									"text" : "pack"
								}

							}
, 							{
								"box" : 								{
									"id" : "obj-32",
									"maxclass" : "message",
									"numinlets" : 2,
									"numoutlets" : 1,
									"outlettype" : [ "" ],
									"patching_rect" : [ 183.0, 137.0, 29.5, 22.0 ],
									"text" : "70"
								}

							}
, 							{
								"box" : 								{
									"id" : "obj-31",
									"maxclass" : "newobj",
									"numinlets" : 3,
									"numoutlets" : 2,
									"outlettype" : [ "float", "float" ],
									"patching_rect" : [ 183.0, 173.0, 108.0, 22.0 ],
									"text" : "makenote 100 100"
								}

							}
, 							{
								"box" : 								{
									"id" : "obj-30",
									"maxclass" : "message",
									"numinlets" : 2,
									"numoutlets" : 1,
									"outlettype" : [ "" ],
									"patching_rect" : [ 50.0, 137.0, 29.5, 22.0 ],
									"text" : "60"
								}

							}
, 							{
								"box" : 								{
									"id" : "obj-27",
									"maxclass" : "newobj",
									"numinlets" : 3,
									"numoutlets" : 2,
									"outlettype" : [ "float", "float" ],
									"patching_rect" : [ 50.0, 173.0, 108.0, 22.0 ],
									"text" : "makenote 100 100"
								}

							}
, 							{
								"box" : 								{
									"id" : "obj-26",
									"maxclass" : "newobj",
									"numinlets" : 2,
									"numoutlets" : 1,
									"outlettype" : [ "bang" ],
									"patching_rect" : [ 183.0, 100.0, 63.0, 22.0 ],
									"text" : "metro 300"
								}

							}
, 							{
								"box" : 								{
									"id" : "obj-25",
									"maxclass" : "newobj",
									"numinlets" : 2,
									"numoutlets" : 1,
									"outlettype" : [ "bang" ],
									"patching_rect" : [ 50.0, 100.0, 63.0, 22.0 ],
									"text" : "metro 200"
								}

							}
, 							{
								"box" : 								{
									"comment" : "",
									"id" : "obj-2",
									"index" : 1,
									"maxclass" : "inlet",
									"numinlets" : 0,
									"numoutlets" : 1,
									"outlettype" : [ "int" ],
									"patching_rect" : [ 110.5, 40.0, 30.0, 30.0 ]
								}

							}
, 							{
								"box" : 								{
									"comment" : "",
									"id" : "obj-6",
									"index" : 1,
									"maxclass" : "outlet",
									"numinlets" : 1,
									"numoutlets" : 0,
									"patching_rect" : [ 50.0, 293.0, 30.0, 30.0 ]
								}

							}
, 							{
								"box" : 								{
									"comment" : "",
									"id" : "obj-10",
									"index" : 2,
									"maxclass" : "outlet",
									"numinlets" : 1,
									"numoutlets" : 0,
									"patching_rect" : [ 183.0, 293.0, 30.0, 30.0 ]
								}

							}
 ],
						"lines" : [ 							{
								"patchline" : 								{
									"destination" : [ "obj-25", 0 ],
									"order" : 1,
									"source" : [ "obj-2", 0 ]
								}

							}
, 							{
								"patchline" : 								{
									"destination" : [ "obj-26", 0 ],
									"order" : 0,
									"source" : [ "obj-2", 0 ]
								}

							}
, 							{
								"patchline" : 								{
									"destination" : [ "obj-30", 0 ],
									"source" : [ "obj-25", 0 ]
								}

							}
, 							{
								"patchline" : 								{
									"destination" : [ "obj-32", 0 ],
									"source" : [ "obj-26", 0 ]
								}

							}
, 							{
								"patchline" : 								{
									"destination" : [ "obj-35", 1 ],
									"source" : [ "obj-27", 1 ]
								}

							}
, 							{
								"patchline" : 								{
									"destination" : [ "obj-35", 0 ],
									"source" : [ "obj-27", 0 ]
								}

							}
, 							{
								"patchline" : 								{
									"destination" : [ "obj-27", 0 ],
									"source" : [ "obj-30", 0 ]
								}

							}
, 							{
								"patchline" : 								{
									"destination" : [ "obj-36", 1 ],
									"source" : [ "obj-31", 1 ]
								}

							}
, 							{
								"patchline" : 								{
									"destination" : [ "obj-36", 0 ],
									"source" : [ "obj-31", 0 ]
								}

							}
, 							{
								"patchline" : 								{
									"destination" : [ "obj-31", 0 ],
									"source" : [ "obj-32", 0 ]
								}

							}
, 							{
								"patchline" : 								{
									"destination" : [ "obj-6", 0 ],
									"source" : [ "obj-35", 0 ]
								}

							}
, 							{
								"patchline" : 								{
									"destination" : [ "obj-10", 0 ],
									"source" : [ "obj-36", 0 ]
								}

							}
 ]
					}
,
					"patching_rect" : [ 17.0, 160.0, 97.0, 22.0 ],
					"saved_object_attributes" : 					{
						"description" : "",
						"digest" : "",
						"globalpatchername" : "",
						"tags" : ""
					}
,
					"text" : "p note-generator"
				}

			}
, 			{
				"box" : 				{
					"id" : "obj-34",
					"maxclass" : "toggle",
					"numinlets" : 1,
					"numoutlets" : 1,
					"outlettype" : [ "int" ],
					"parameter_enable" : 0,
					"patching_rect" : [ 17.0, 119.5, 27.0, 27.0 ]
				}

			}
, 			{
				"box" : 				{
					"bubble" : 1,
					"id" : "obj-23",
					"linecount" : 5,
					"maxclass" : "comment",
					"numinlets" : 1,
					"numoutlets" : 0,
					"patching_rect" : [ 471.5, 349.5, 170.0, 78.0 ],
					"text" : "Notice that the two synths are panned to opposite sides. This makes it easier to understand the effect of the panning mode button."
				}

			}
, 			{
				"box" : 				{
					"hidden" : 1,
					"id" : "obj-22",
					"maxclass" : "newobj",
					"numinlets" : 1,
					"numoutlets" : 1,
					"outlettype" : [ "" ],
					"patching_rect" : [ 657.0, 160.0, 73.0, 22.0 ],
					"text" : "loadmess 1."
				}

			}
, 			{
				"box" : 				{
					"hidden" : 1,
					"id" : "obj-18",
					"maxclass" : "newobj",
					"numinlets" : 1,
					"numoutlets" : 1,
					"outlettype" : [ "" ],
					"patching_rect" : [ 292.0, 160.0, 73.0, 22.0 ],
					"text" : "loadmess 0."
				}

			}
, 			{
				"box" : 				{
					"annotation" : "## A polyphonic synthesizer ##",
					"bgmode" : 1,
					"border" : 0,
					"clickthrough" : 0,
					"enablehscroll" : 0,
					"enablevscroll" : 0,
					"id" : "obj-17",
					"lockeddragscroll" : 0,
					"lockedsize" : 0,
					"maxclass" : "bpatcher",
					"name" : "az.wavr~.maxpat",
					"numinlets" : 11,
					"numoutlets" : 1,
					"offset" : [ 0.0, 0.0 ],
					"outlettype" : [ "multichannelsignal" ],
					"patching_rect" : [ 382.0, 203.0, 348.0, 142.0 ],
					"prototypename" : "pixl",
					"varname" : "wavr[2]",
					"viewvisibility" : 1
				}

			}
, 			{
				"box" : 				{
					"annotation" : "## A polyphonic synthesizer ##",
					"bgmode" : 1,
					"border" : 0,
					"clickthrough" : 0,
					"enablehscroll" : 0,
					"enablevscroll" : 0,
					"id" : "obj-28",
					"lockeddragscroll" : 0,
					"lockedsize" : 0,
					"maxclass" : "bpatcher",
					"name" : "az.wavr~.maxpat",
					"numinlets" : 11,
					"numoutlets" : 1,
					"offset" : [ 0.0, 0.0 ],
					"outlettype" : [ "multichannelsignal" ],
					"patching_rect" : [ 17.0, 203.0, 348.0, 142.0 ],
					"prototypename" : "pixl",
					"varname" : "wavr[1]",
					"viewvisibility" : 1
				}

			}
, 			{
				"box" : 				{
					"bubble" : 1,
					"bubblepoint" : 1.0,
					"id" : "obj-14",
					"linecount" : 2,
					"maxclass" : "comment",
					"numinlets" : 1,
					"numoutlets" : 0,
					"patching_rect" : [ 277.0, 416.5, 170.0, 37.0 ],
					"text" : "Change the panning mode to hear the difference."
				}

			}
, 			{
				"box" : 				{
					"bubble" : 1,
					"bubbleside" : 3,
					"id" : "obj-8",
					"linecount" : 2,
					"maxclass" : "comment",
					"numinlets" : 1,
					"numoutlets" : 0,
					"patching_rect" : [ 118.0, 432.5, 72.0, 37.0 ],
					"text" : "Try the pan dial."
				}

			}
, 			{
				"box" : 				{
					"annotation" : "## Pan or balance with one stereo source ##",
					"bgmode" : 1,
					"border" : 0,
					"clickthrough" : 0,
					"enablehscroll" : 0,
					"enablevscroll" : 0,
					"id" : "obj-1",
					"lockeddragscroll" : 0,
					"lockedsize" : 0,
					"maxclass" : "bpatcher",
					"name" : "az.panr~.maxpat",
					"numinlets" : 3,
					"numoutlets" : 1,
					"offset" : [ 0.0, 0.0 ],
					"outlettype" : [ "multichannelsignal" ],
					"patching_rect" : [ 178.0, 385.5, 107.0, 111.0 ],
					"prototypename" : "pixl",
					"varname" : "panr",
					"viewvisibility" : 1
				}

			}
, 			{
				"box" : 				{
					"bubblepoint" : 1.0,
					"bubbleside" : 0,
					"bubbleusescolors" : 1,
					"fontname" : "Arial",
					"fontsize" : 36.0,
					"id" : "obj-15",
					"maxclass" : "comment",
					"numinlets" : 1,
					"numoutlets" : 0,
					"patching_rect" : [ 17.0, 16.0, 405.0, 47.0 ],
					"saved_attribute_attributes" : 					{
						"textcolor" : 						{
							"expression" : "themecolor.live_control_fg"
						}

					}
,
					"text" : "PANR / az.panr~",
					"textcolor" : [ 0.9, 0.9, 0.9, 1.0 ]
				}

			}
, 			{
				"box" : 				{
					"bubblepoint" : 1.0,
					"bubbleside" : 0,
					"bubbleusescolors" : 1,
					"fontname" : "Arial",
					"fontsize" : 16.0,
					"id" : "obj-9",
					"linecount" : 2,
					"maxclass" : "comment",
					"numinlets" : 1,
					"numoutlets" : 0,
					"patching_rect" : [ 17.0, 65.0, 393.0, 42.0 ],
					"saved_attribute_attributes" : 					{
						"textcolor" : 						{
							"expression" : "themecolor.live_control_fg"
						}

					}
,
					"text" : "Pan the two channels within an audio cable with your choice of two methods: pan and balance.",
					"textcolor" : [ 0.9, 0.9, 0.9, 1.0 ]
				}

			}
, 			{
				"box" : 				{
					"bubblepoint" : 1.0,
					"bubbleside" : 0,
					"bubbleusescolors" : 1,
					"fontname" : "Arial Bold",
					"id" : "obj-4",
					"linecount" : 8,
					"maxclass" : "comment",
					"numinlets" : 1,
					"numoutlets" : 0,
					"patching_rect" : [ 258.0, 511.0, 315.0, 114.0 ],
					"saved_attribute_attributes" : 					{
						"textcolor" : 						{
							"expression" : "themecolor.live_control_fg"
						}

					}
,
					"text" : "pan dial - pan according to the current panning mode\n\nmode:\n   pan: gradually move the location of one\n            channel to the opposite side\n   bal:  balance the two input channels by\n            gradually attenuating one channel when\n            the pan dial moves to the opposite side",
					"textcolor" : [ 0.9, 0.9, 0.9, 1.0 ]
				}

			}
, 			{
				"box" : 				{
					"bubble" : 1,
					"id" : "obj-20",
					"linecount" : 2,
					"maxclass" : "comment",
					"numinlets" : 1,
					"numoutlets" : 0,
					"patching_rect" : [ 251.0, 737.0, 132.0, 37.0 ],
					"text" : "Turn on audio, and control volume."
				}

			}
, 			{
				"box" : 				{
					"annotation" : "## Output fader ##",
					"bgmode" : 1,
					"border" : 0,
					"clickthrough" : 0,
					"enablehscroll" : 0,
					"enablevscroll" : 0,
					"id" : "obj-24",
					"lockeddragscroll" : 0,
					"lockedsize" : 0,
					"maxclass" : "bpatcher",
					"name" : "az.out~.maxpat",
					"numinlets" : 2,
					"numoutlets" : 0,
					"offset" : [ 0.0, 0.0 ],
					"patching_rect" : [ 178.0, 512.0, 71.0, 277.0 ],
					"prototypename" : "pixl",
					"varname" : "out",
					"viewvisibility" : 1
				}

			}
, 			{
				"box" : 				{
					"background" : 1,
					"bgcolor" : [ 1.0, 0.639256198347107, 0.1, 1.0 ],
					"bgoncolor" : [ 1.0, 1.0, 1.0, 0.0 ],
					"fontface" : 1,
					"fontsize" : 16.0,
					"hint" : "",
					"id" : "obj-7",
					"ignoreclick" : 1,
					"legacytextcolor" : 1,
					"maxclass" : "textbutton",
					"numinlets" : 1,
					"numoutlets" : 3,
					"outlettype" : [ "", "", "int" ],
					"parameter_enable" : 0,
					"patching_rect" : [ 90.0, 441.0, 20.0, 20.0 ],
					"rounded" : 60.0,
					"text" : "3",
					"textcolor" : [ 0.0, 0.0, 0.0, 1.0 ],
					"textoncolor" : [ 1.0, 1.0, 1.0, 1.0 ],
					"textovercolor" : [ 0.0, 0.0, 0.0, 1.0 ],
					"usebgoncolor" : 1,
					"usetextovercolor" : 1
				}

			}
, 			{
				"box" : 				{
					"background" : 1,
					"bgcolor" : [ 1.0, 0.639256198347107, 0.1, 1.0 ],
					"bgoncolor" : [ 1.0, 1.0, 1.0, 0.0 ],
					"fontface" : 1,
					"fontsize" : 16.0,
					"hint" : "",
					"id" : "obj-13",
					"ignoreclick" : 1,
					"legacytextcolor" : 1,
					"maxclass" : "textbutton",
					"numinlets" : 1,
					"numoutlets" : 3,
					"outlettype" : [ "", "", "int" ],
					"parameter_enable" : 0,
					"patching_rect" : [ 181.0, 123.0, 20.0, 20.0 ],
					"rounded" : 60.0,
					"text" : "2",
					"textcolor" : [ 0.0, 0.0, 0.0, 1.0 ],
					"textoncolor" : [ 1.0, 1.0, 1.0, 1.0 ],
					"textovercolor" : [ 0.0, 0.0, 0.0, 1.0 ],
					"usebgoncolor" : 1,
					"usetextovercolor" : 1
				}

			}
, 			{
				"box" : 				{
					"background" : 1,
					"bgcolor" : [ 1.0, 0.639256198347107, 0.1, 1.0 ],
					"bgoncolor" : [ 1.0, 1.0, 1.0, 0.0 ],
					"fontface" : 1,
					"fontsize" : 16.0,
					"hint" : "",
					"id" : "obj-5",
					"ignoreclick" : 1,
					"legacytextcolor" : 1,
					"maxclass" : "textbutton",
					"numinlets" : 1,
					"numoutlets" : 3,
					"outlettype" : [ "", "", "int" ],
					"parameter_enable" : 0,
					"patching_rect" : [ 390.0, 745.5, 20.0, 20.0 ],
					"rounded" : 60.0,
					"text" : "1",
					"textcolor" : [ 0.0, 0.0, 0.0, 1.0 ],
					"textoncolor" : [ 1.0, 1.0, 1.0, 1.0 ],
					"textovercolor" : [ 0.0, 0.0, 0.0, 1.0 ],
					"usebgoncolor" : 1,
					"usetextovercolor" : 1
				}

			}
, 			{
				"box" : 				{
					"background" : 1,
					"bgcolor" : [ 1.0, 0.639256198347107, 0.1, 1.0 ],
					"bgoncolor" : [ 1.0, 1.0, 1.0, 0.0 ],
					"fontface" : 1,
					"fontsize" : 16.0,
					"hint" : "",
					"id" : "obj-3",
					"ignoreclick" : 1,
					"legacytextcolor" : 1,
					"maxclass" : "textbutton",
					"numinlets" : 1,
					"numoutlets" : 3,
					"outlettype" : [ "", "", "int" ],
					"parameter_enable" : 0,
					"patching_rect" : [ 452.5, 425.0, 20.0, 20.0 ],
					"rounded" : 60.0,
					"text" : "4",
					"textcolor" : [ 0.0, 0.0, 0.0, 1.0 ],
					"textoncolor" : [ 1.0, 1.0, 1.0, 1.0 ],
					"textovercolor" : [ 0.0, 0.0, 0.0, 1.0 ],
					"usebgoncolor" : 1,
					"usetextovercolor" : 1
				}

			}
 ],
		"lines" : [ 			{
				"patchline" : 				{
					"destination" : [ "obj-24", 0 ],
					"source" : [ "obj-1", 0 ]
				}

			}
, 			{
				"patchline" : 				{
					"destination" : [ "obj-17", 0 ],
					"source" : [ "obj-11", 1 ]
				}

			}
, 			{
				"patchline" : 				{
					"destination" : [ "obj-28", 0 ],
					"source" : [ "obj-11", 0 ]
				}

			}
, 			{
				"patchline" : 				{
					"destination" : [ "obj-1", 0 ],
					"order" : 1,
					"source" : [ "obj-17", 0 ]
				}

			}
, 			{
				"patchline" : 				{
					"destination" : [ "obj-6", 0 ],
					"order" : 0,
					"source" : [ "obj-17", 0 ]
				}

			}
, 			{
				"patchline" : 				{
					"destination" : [ "obj-28", 10 ],
					"hidden" : 1,
					"source" : [ "obj-18", 0 ]
				}

			}
, 			{
				"patchline" : 				{
					"destination" : [ "obj-17", 10 ],
					"hidden" : 1,
					"source" : [ "obj-22", 0 ]
				}

			}
, 			{
				"patchline" : 				{
					"destination" : [ "obj-1", 0 ],
					"order" : 1,
					"source" : [ "obj-28", 0 ]
				}

			}
, 			{
				"patchline" : 				{
					"destination" : [ "obj-2", 0 ],
					"order" : 0,
					"source" : [ "obj-28", 0 ]
				}

			}
, 			{
				"patchline" : 				{
					"destination" : [ "obj-11", 0 ],
					"source" : [ "obj-34", 0 ]
				}

			}
 ],
		"parameters" : 		{
			"obj-17::obj-102" : [ "pictctrl[18]", "pictctrl[3]", 0 ],
			"obj-17::obj-105" : [ "pictctrl[21]", "pictctrl[3]", 0 ],
			"obj-17::obj-12" : [ "resetpan[1]", "resetpan", 0 ],
			"obj-17::obj-13" : [ "wave[1]", "wave", 0 ],
			"obj-17::obj-16" : [ "release[1]", "R", 0 ],
			"obj-17::obj-20" : [ "vib depth[1]", "depth", 0 ],
			"obj-17::obj-21" : [ "duty cycle[1]", "duty", 0 ],
			"obj-17::obj-24" : [ "portamento[1]", "port", 0 ],
			"obj-17::obj-265" : [ "pictctrl[24]", "pictctrl[3]", 0 ],
			"obj-17::obj-269" : [ "pictctrl[19]", "pictctrl[3]", 0 ],
			"obj-17::obj-276" : [ "FreqMode[1]", "FreqMode", 0 ],
			"obj-17::obj-278" : [ "textbutton[4]", "textbutton[1]", 0 ],
			"obj-17::obj-32" : [ "resetbend[1]", "resetbend", 0 ],
			"obj-17::obj-33" : [ "pictctrl[22]", "pictctrl[3]", 0 ],
			"obj-17::obj-5" : [ "attack[1]", "A", 0 ],
			"obj-17::obj-50" : [ "polyphony-menu[1]", "polyphony-menu", 0 ],
			"obj-17::obj-51" : [ "polyphony-val[1]", "polyphony-val", 0 ],
			"obj-17::obj-56" : [ "vib rate[1]", "rate", 0 ],
			"obj-17::obj-6" : [ "decay[1]", "D", 0 ],
			"obj-17::obj-60" : [ "bend[1]", "bend", 0 ],
			"obj-17::obj-61" : [ "pan[2]", "pan", 0 ],
			"obj-17::obj-63" : [ "pictctrl[16]", "pictctrl[3]", 0 ],
			"obj-17::obj-68" : [ "pictctrl[25]", "pictctrl[3]", 0 ],
			"obj-17::obj-79" : [ "pictctrl[23]", "pictctrl[3]", 0 ],
			"obj-17::obj-8" : [ "sustain[1]", "S", 0 ],
			"obj-17::obj-88" : [ "pictctrl[20]", "pictctrl[3]", 0 ],
			"obj-17::obj-9" : [ "LFOwave[1]", "LFOwave", 0 ],
			"obj-17::obj-96" : [ "pictctrl[17]", "pictctrl[3]", 0 ],
			"obj-17::obj-99" : [ "pictctrl[26]", "pictctrl[3]", 0 ],
			"obj-1::obj-21" : [ "pictctrl[4]", "pictctrl[1]", 0 ],
			"obj-1::obj-3" : [ "pan", "pan", 0 ],
			"obj-1::obj-58" : [ "pictctrl[7]", "pictctrl", 0 ],
			"obj-1::obj-7" : [ "onoff[1]", "panbal-mode", 0 ],
			"obj-24::obj-102" : [ "pictctrl[1]", "pictctrl[1]", 0 ],
			"obj-24::obj-16" : [ "output", "output", 0 ],
			"obj-24::obj-86" : [ "textbutton[1]", "textbutton", 0 ],
			"obj-28::obj-102" : [ "pictctrl[8]", "pictctrl[3]", 0 ],
			"obj-28::obj-105" : [ "pictctrl[9]", "pictctrl[3]", 0 ],
			"obj-28::obj-12" : [ "resetpan", "resetpan", 0 ],
			"obj-28::obj-13" : [ "wave", "wave", 0 ],
			"obj-28::obj-16" : [ "release", "R", 0 ],
			"obj-28::obj-20" : [ "vib depth", "depth", 0 ],
			"obj-28::obj-21" : [ "duty cycle", "duty", 0 ],
			"obj-28::obj-24" : [ "portamento", "port", 0 ],
			"obj-28::obj-265" : [ "pictctrl[40]", "pictctrl[3]", 0 ],
			"obj-28::obj-269" : [ "pictctrl[39]", "pictctrl[3]", 0 ],
			"obj-28::obj-276" : [ "FreqMode[4]", "FreqMode", 0 ],
			"obj-28::obj-278" : [ "textbutton[3]", "textbutton[1]", 0 ],
			"obj-28::obj-32" : [ "resetbend", "resetbend", 0 ],
			"obj-28::obj-33" : [ "pictctrl[14]", "pictctrl[3]", 0 ],
			"obj-28::obj-5" : [ "attack", "A", 0 ],
			"obj-28::obj-50" : [ "polyphony-menu", "polyphony-menu", 0 ],
			"obj-28::obj-51" : [ "polyphony-val", "polyphony-val", 0 ],
			"obj-28::obj-56" : [ "vib rate", "rate", 0 ],
			"obj-28::obj-6" : [ "decay", "D", 0 ],
			"obj-28::obj-60" : [ "bend", "bend", 0 ],
			"obj-28::obj-61" : [ "pan[1]", "pan", 0 ],
			"obj-28::obj-63" : [ "pictctrl[2]", "pictctrl[3]", 0 ],
			"obj-28::obj-68" : [ "pictctrl[3]", "pictctrl[3]", 0 ],
			"obj-28::obj-79" : [ "pictctrl[13]", "pictctrl[3]", 0 ],
			"obj-28::obj-8" : [ "sustain", "S", 0 ],
			"obj-28::obj-88" : [ "pictctrl[5]", "pictctrl[3]", 0 ],
			"obj-28::obj-9" : [ "LFOwave", "LFOwave", 0 ],
			"obj-28::obj-96" : [ "pictctrl[6]", "pictctrl[3]", 0 ],
			"obj-28::obj-99" : [ "pictctrl[15]", "pictctrl[3]", 0 ],
			"parameterbanks" : 			{
				"0" : 				{
					"index" : 0,
					"name" : "",
					"parameters" : [ "-", "-", "-", "-", "-", "-", "-", "-" ]
				}

			}
,
			"parameter_overrides" : 			{
				"obj-17::obj-102" : 				{
					"parameter_longname" : "pictctrl[18]"
				}
,
				"obj-17::obj-105" : 				{
					"parameter_longname" : "pictctrl[21]"
				}
,
				"obj-17::obj-12" : 				{
					"parameter_longname" : "resetpan[1]"
				}
,
				"obj-17::obj-13" : 				{
					"parameter_longname" : "wave[1]"
				}
,
				"obj-17::obj-16" : 				{
					"parameter_longname" : "release[1]"
				}
,
				"obj-17::obj-20" : 				{
					"parameter_longname" : "vib depth[1]"
				}
,
				"obj-17::obj-21" : 				{
					"parameter_longname" : "duty cycle[1]"
				}
,
				"obj-17::obj-24" : 				{
					"parameter_longname" : "portamento[1]"
				}
,
				"obj-17::obj-265" : 				{
					"parameter_longname" : "pictctrl[24]"
				}
,
				"obj-17::obj-269" : 				{
					"parameter_longname" : "pictctrl[19]"
				}
,
				"obj-17::obj-276" : 				{
					"parameter_longname" : "FreqMode[1]"
				}
,
				"obj-17::obj-32" : 				{
					"parameter_longname" : "resetbend[1]"
				}
,
				"obj-17::obj-33" : 				{
					"parameter_longname" : "pictctrl[22]"
				}
,
				"obj-17::obj-5" : 				{
					"parameter_longname" : "attack[1]"
				}
,
				"obj-17::obj-50" : 				{
					"parameter_longname" : "polyphony-menu[1]"
				}
,
				"obj-17::obj-56" : 				{
					"parameter_longname" : "vib rate[1]"
				}
,
				"obj-17::obj-6" : 				{
					"parameter_longname" : "decay[1]"
				}
,
				"obj-17::obj-60" : 				{
					"parameter_longname" : "bend[1]"
				}
,
				"obj-17::obj-61" : 				{
					"parameter_longname" : "pan[2]"
				}
,
				"obj-17::obj-63" : 				{
					"parameter_longname" : "pictctrl[16]"
				}
,
				"obj-17::obj-68" : 				{
					"parameter_longname" : "pictctrl[25]"
				}
,
				"obj-17::obj-79" : 				{
					"parameter_longname" : "pictctrl[23]"
				}
,
				"obj-17::obj-8" : 				{
					"parameter_longname" : "sustain[1]"
				}
,
				"obj-17::obj-88" : 				{
					"parameter_longname" : "pictctrl[20]"
				}
,
				"obj-17::obj-9" : 				{
					"parameter_longname" : "LFOwave[1]"
				}
,
				"obj-17::obj-96" : 				{
					"parameter_longname" : "pictctrl[17]"
				}
,
				"obj-17::obj-99" : 				{
					"parameter_longname" : "pictctrl[26]"
				}
,
				"obj-24::obj-102" : 				{
					"parameter_longname" : "pictctrl[1]"
				}
,
				"obj-28::obj-33" : 				{
					"parameter_longname" : "pictctrl[14]"
				}
,
				"obj-28::obj-61" : 				{
					"parameter_longname" : "pan[1]"
				}
,
				"obj-28::obj-79" : 				{
					"parameter_longname" : "pictctrl[13]"
				}
,
				"obj-28::obj-99" : 				{
					"parameter_longname" : "pictctrl[15]"
				}

			}
,
			"inherited_shortname" : 1
		}
,
		"autosave" : 0,
		"bgcolor" : [ 0.2, 0.2, 0.2, 1.0 ],
		"editing_bgcolor" : [ 0.2, 0.2, 0.2, 1.0 ],
		"saved_attribute_attributes" : 		{
			"editing_bgcolor" : 			{
				"expression" : "themecolor.theme_editing_bgcolor"
			}
,
			"locked_bgcolor" : 			{
				"expression" : "themecolor.theme_locked_bgcolor"
			}

		}

	}

}
